HIERARCHY
ROOT root
{
	OFFSET	0	13.1	24.9
	CHANNELS 6  Xposition Yposition Zposition Xrotation Yrotation Zrotation
	JOINT spine_1
	{
		OFFSET	0	9.99999	0
		CHANNELS 3  Xrotation Yrotation Zrotation
		JOINT spine_2
		{
			OFFSET	0	112	-10
			CHANNELS 3  Xrotation Yrotation Zrotation
			JOINT spine_3
			{
				OFFSET	0	206.5	19.3
				CHANNELS 3  Xrotation Yrotation Zrotation
				JOINT spine_4
				{
					OFFSET	0	110.4	14.6
					CHANNELS 3  Xrotation Yrotation Zrotation
					JOINT neck_1
					{
						OFFSET	0	71.8	-50.3
						CHANNELS 3  Xrotation Yrotation Zrotation
						JOINT neck_2
						{
							OFFSET	0	86.2	-25.8
							CHANNELS 3  Xrotation Yrotation Zrotation
							JOINT head_ee
							{
								OFFSET	0	179.8	-8.7
								CHANNELS 3  Xrotation Yrotation Zrotation
								End Site
								{
									OFFSET	1	0	0
								}
							}
						}
					}
					JOINT left_clavicle
					{
						OFFSET	-43.2	22.4	-70.8
						CHANNELS 3  Xrotation Yrotation Zrotation
						JOINT left_shoulder
						{
							OFFSET	-93.9	-5.79999	48.7
							CHANNELS 3  Xrotation Yrotation Zrotation
							JOINT left_elbow
							{
								OFFSET	-291.4	-30.8	15.2
								CHANNELS 3  Xrotation Yrotation Zrotation
								JOINT left_lowarm_twist
								{
									OFFSET	-110.7	-3.89999	13.6
									CHANNELS 3  Xrotation Yrotation Zrotation
									JOINT left_hand
									{
										OFFSET	-110.7	-3.89999	13.6
										CHANNELS 3  Xrotation Yrotation Zrotation
										JOINT left_ee
										{
											OFFSET	-80.8	-5.10001	12.1
											CHANNELS 3  Xrotation Yrotation Zrotation
											End Site
											{
												OFFSET	1	0	0
											}
										}
									}
								}
							}
						}
					}
					JOINT right_clavicle
					{
						OFFSET	43.2	22.4	-70.8
						CHANNELS 3  Xrotation Yrotation Zrotation
						JOINT right_shoulder
						{
							OFFSET	93.9	-5.79999	48.7
							CHANNELS 3  Xrotation Yrotation Zrotation
							JOINT right_elbow
							{
								OFFSET	291.4	-30.8	15.2
								CHANNELS 3  Xrotation Yrotation Zrotation
								JOINT right_lowarm_twist
								{
									OFFSET	110.7	-3.89999	13.6
									CHANNELS 3  Xrotation Yrotation Zrotation
									JOINT right_hand
									{
										OFFSET	110.7	-3.89999	13.6
										CHANNELS 3  Xrotation Yrotation Zrotation
										JOINT right_ee
										{
											OFFSET	80.8	-5.10001	12.1
											CHANNELS 3  Xrotation Yrotation Zrotation
											End Site
											{
												OFFSET	1	0	0
											}
										}
									}
								}
							}
						}
					}
				}
			}
		}
	}
	JOINT left_hip
	{
		OFFSET	-82.8	-127.5	0.300001
		CHANNELS 3  Xrotation Yrotation Zrotation
		JOINT left_knee
		{
			OFFSET	-28.2	-396.7	2.2
			CHANNELS 3  Xrotation Yrotation Zrotation
			JOINT left_ankle
			{
				OFFSET	-11.7	-411.3	35.4
				CHANNELS 3  Xrotation Yrotation Zrotation
				JOINT left_toes
				{
					OFFSET	0	-60	-88.6
					CHANNELS 3  Xrotation Yrotation Zrotation
					JOINT left_foot_ee
					{
						OFFSET	-22.5	-16.5	-42.2
						CHANNELS 3  Xrotation Yrotation Zrotation
						End Site
						{
							OFFSET	1	0	0
						}
					}
				}
			}
		}
	}
	JOINT right_hip
	{
		OFFSET	82.8	-127.5	0.300001
		CHANNELS 3  Xrotation Yrotation Zrotation
		JOINT right_knee
		{
			OFFSET	28.2	-396.7	2.2
			CHANNELS 3  Xrotation Yrotation Zrotation
			JOINT right_ankle
			{
				OFFSET	11.7	-411.3	35.4
				CHANNELS 3  Xrotation Yrotation Zrotation
				JOINT right_toes
				{
					OFFSET	0	-60	-88.6
					CHANNELS 3  Xrotation Yrotation Zrotation
					JOINT right_foot_ee
					{
						OFFSET	22.5	-16.5	-42.2
						CHANNELS 3  Xrotation Yrotation Zrotation
						End Site
						{
							OFFSET	1	0	0
						}
					}
				}
			}
		}
	}
}
MOTION
Frames: 15
Frame Time: 0.02
391.555 721.904 -1204.45 -167.824495441 -38.1749532131 -168.239442639 0.828941 0.247746 1.08558 0.829579 0.17817 1.09914 0.833228 -0.0406396 1.11275 0.831526 0.135597 1.1052 -6.35982 -17.9509 1.27727 -6.2602 -34.2337 -2.24341 -0.0 0.0 -0.0 -1.80658 23.9647 0.324123 -13.5904 -51.2343 65.798 0.774102 -20.9801 0.143334 5.63906 0.164275 -0.701284 -1.17807 14.3895 -1.43922 -0.0 0.0 -0.0 9.99529 18.1022 -19.5199 -12.4493 29.6247 -57.371 1.00163 26.3891 -0.234835 49.9841 0.967673 6.11164 0.374942 -2.44338 -3.51419 0.0 0.0 0.0 24.432 -8.45635 -10.997 -23.2767 0.242358 3.53926 21.6109 26.7853 -3.11179 -25.7273 0.0 0.0 -0.0 0.0 -0.0 19.8376 22.4894 -5.18817 -20.1484 -0.293845 -3.06206 21.2458 -28.9715 3.10864 0.502662 -0.0 -0.0 0.0 0.0 0.0 
419.02135058 716.722 -1215.76854279 -167.961965217 -39.4364514755 -167.610539734 0.847484 -0.0177944 0.748339 0.847793 -0.0653758 0.745691 0.846994 -0.210057 0.718475 0.846286 -0.0939543 0.742631 -5.18956 -18.1728 2.38102 -4.87747 -35.2771 -0.766216 -0.0 0.0 -0.0 -2.18344 22.7519 -0.397483 -14.7826 -51.7695 68.3003 0.8235 -22.1923 0.161509 6.47644 0.182751 -0.806656 -1.11751 14.992 -0.795205 -0.0 0.0 -0.0 9.65522 16.7555 -18.8407 -13.1176 28.7464 -56.2335 1.08139 28.1766 -0.271398 49.3308 0.921321 6.04201 0.555858 -1.21377 -4.21418 0.0 0.0 0.0 25.4023 -6.14511 -10.7145 -24.1039 0.224391 3.66494 20.6377 25.6334 -2.96312 -26.4292 0.0 0.0 -0.0 0.0 -0.0 19.1776 24.3726 -4.02361 -21.7512 -0.270721 -3.3069 19.0428 -28.5977 2.80389 0.685716 -0.0 -0.0 0.0 0.0 0.0 
419.082176614 716.722 -1215.61979734 -168.01473176 -39.1332932349 -167.693875659 0.847484 -0.0177944 0.748339 0.847793 -0.0653758 0.745691 0.846994 -0.210057 0.718475 0.846286 -0.0939543 0.742631 -5.18956 -18.1728 2.38102 -4.87747 -35.2771 -0.766216 -0.0 0.0 -0.0 -2.18344 22.7519 -0.397483 -14.7826 -51.7695 68.3003 0.8235 -22.1923 0.161509 6.47644 0.182751 -0.806656 -1.11751 14.992 -0.795205 -0.0 0.0 -0.0 9.65522 16.7555 -18.8407 -13.1176 28.7464 -56.2335 1.08139 28.1766 -0.271398 49.3308 0.921321 6.04201 0.555858 -1.21377 -4.21418 0.0 0.0 0.0 25.4023 -6.14511 -10.7145 -24.1039 0.224391 3.66494 20.6377 25.6334 -2.96312 -26.4292 0.0 0.0 -0.0 0.0 -0.0 19.1776 24.3726 -4.02361 -21.7512 -0.270721 -3.3069 19.0428 -28.5977 2.80389 0.685716 -0.0 -0.0 0.0 0.0 0.0 
419.284513376 716.722 -1215.10757538 -168.189642572 -38.0938928709 -167.974140386 0.847484 -0.0177944 0.748339 0.847793 -0.0653758 0.745691 0.846994 -0.210057 0.718475 0.846286 -0.0939543 0.742631 -5.18956 -18.1728 2.38102 -4.87747 -35.2771 -0.766216 -0.0 0.0 -0.0 -2.18344 22.7519 -0.397483 -14.7826 -51.7695 68.3003 0.8235 -22.1923 0.161509 6.47644 0.182751 -0.806656 -1.11751 14.992 -0.795205 -0.0 0.0 -0.0 9.65522 16.7555 -18.8407 -13.1176 28.7464 -56.2335 1.08139 28.1766 -0.271398 49.3308 0.921321 6.04201 0.555858 -1.21377 -4.21418 0.0 0.0 0.0 25.4023 -6.14511 -10.7145 -24.1039 0.224391 3.66494 20.6377 25.6334 -2.96312 -26.4292 0.0 0.0 -0.0 0.0 -0.0 19.1776 24.3726 -4.02361 -21.7512 -0.270721 -3.3069 19.0428 -28.5977 2.80389 0.685716 -0.0 -0.0 0.0 0.0 0.0 
431.526283281 717.594 -1218.77034824 -168.409333871 -36.2855229808 -168.026439149 0.893301 0.0979961 0.72929 0.893596 0.0513922 0.734048 0.894334 -0.092656 0.729988 0.893591 0.0237915 0.735459 -5.06804 -18.2265 1.33572 -4.77554 -34.5926 -1.80813 -0.0 0.0 -0.0 -2.03124 21.8063 -0.345586 -13.6662 -51.5824 70.263 0.735825 -20.0271 0.129927 7.58926 0.204917 -0.947079 -0.96499 15.8678 0.530582 -0.0 0.0 -0.0 9.88415 15.9207 -19.393 -13.5491 28.4208 -55.6681 1.16263 29.9381 -0.310864 48.5906 0.869766 5.96249 0.559305 -1.04579 -4.16825 0.0 0.0 0.0 25.108 -5.30793 -10.8055 -24.1859 0.222513 3.67737 22.3784 24.274 -3.16486 -26.2929 0.0 0.0 -0.0 0.0 -0.0 19.5383 26.2927 -4.39339 -22.1155 -0.26451 -3.36246 17.1345 -29.5757 2.55869 0.842334 -0.0 -0.0 0.0 0.0 0.0 
431.292877472 717.594 -1219.40583348 -168.271548241 -37.1802411004 -167.796068436 0.893301 0.0979961 0.72929 0.893596 0.0513922 0.734048 0.894334 -0.092656 0.729988 0.893591 0.0237915 0.735459 -5.06804 -18.2265 1.33572 -4.77554 -34.5926 -1.80813 -0.0 0.0 -0.0 -2.03124 21.8063 -0.345586 -13.6662 -51.5824 70.263 0.735825 -20.0271 0.129927 7.58926 0.204917 -0.947079 -0.96499 15.8678 0.530582 -0.0 0.0 -0.0 9.88415 15.9207 -19.393 -13.5491 28.4208 -55.6681 1.16263 29.9381 -0.310864 48.5906 0.869766 5.96249 0.559305 -1.04579 -4.16825 0.0 0.0 0.0 25.108 -5.30793 -10.8055 -24.1859 0.222513 3.67737 22.3784 24.274 -3.16486 -26.2929 0.0 0.0 -0.0 0.0 -0.0 19.5383 26.2927 -4.39339 -22.1155 -0.26451 -3.36246 17.1345 -29.5757 2.55869 0.842334 -0.0 -0.0 0.0 0.0 0.0 
486.641973082 716.04 -1238.15765714 -168.323249407 -35.2449171685 -170.088237052 1.04574 0.105434 0.855188 1.04615 0.0508047 0.860163 1.047 -0.115539 0.853881 1.04598 0.0207601 0.861412 -3.83107 -18.7852 1.80218 -3.31052 -35.7671 -0.997911 -0.0 0.0 -0.0 0.0101538 17.8043 2.10039 -12.8062 -51.3402 72.2231 0.412336 -11.5446 0.0416824 11.7222 0.263271 -1.47166 -0.847607 19.898 2.97078 -0.0 0.0 -0.0 9.22374 12.1717 -18.0881 -15.0521 27.1926 -53.9465 1.38879 34.5247 -0.431578 41.5383 0.431685 5.17412 0.668455 -0.635027 -4.72936 0.0 0.0 0.0 21.9763 0.612409 -5.35818 -20.0736 0.294757 3.05062 27.5746 14.2077 -3.65708 -25.8615 0.0 0.0 -0.0 0.0 -0.0 20.5783 33.2637 0.342601 -28.8272 -0.0871981 -4.37662 10.1574 -29.7253 1.55448 1.94945 -0.0 -0.0 0.0 0.0 0.0 
505.611065063 717.282 -1238.42591215 -169.459328387 -33.2548348616 -172.172212905 1.14335 0.419414 1.06447 1.14391 0.350833 1.089 1.15081 0.136997 1.13588 1.14915 0.314658 1.09999 -4.23379 -19.6349 2.43408 -3.69768 -37.8712 -0.60497 -0.0 0.0 -0.0 0.765955 18.5865 3.32705 -13.3338 -51.0281 71.5182 0.269719 -7.61043 0.0179394 12.3269 0.26863 -1.54872 -1.0757 20.1627 1.73037 -0.0 0.0 -0.0 9.34908 10.9272 -18.396 -14.3343 27.001 -54.633 1.23218 31.398 -0.346339 37.8972 0.24443 4.74783 -0.207735 -3.47483 -0.0849298 0.0 0.0 0.0 20.1502 -4.60605 -2.36883 -21.1265 0.280548 3.21155 29.839 16.5168 -3.93462 -26.1623 0.0 0.0 -0.0 0.0 -0.0 20.6905 30.9887 1.29719 -30.9125 -0.00803657 -4.68684 10.2788 -31.5104 1.59313 3.44014 -0.0 -0.0 0.0 0.0 0.0 
523.936754597 715.357 -1236.76751769 -170.861686292 -33.1966347409 -173.050626809 0.756281 0.437458 1.29902 0.75715 0.353919 1.32422 0.765748 0.0860345 1.36799 0.763263 0.300984 1.33724 -2.99351 -19.5255 2.74354 -2.22823 -37.6918 0.197187 -0.0 0.0 -0.0 0.8711 18.8177 3.50605 -11.4706 -51.3093 71.7581 0.207423 -5.86676 0.0106288 13.1123 0.274376 -1.64886 -0.765957 21.1483 3.97836 -0.0 0.0 -0.0 9.26836 9.86947 -18.2433 -15.3928 27.3353 -54.6242 1.29026 32.5834 -0.377109 35.0001 0.115057 4.4008 -0.282298 -2.49883 0.821604 0.0 0.0 0.0 19.2814 -4.98733 -1.43081 -22.3889 0.259618 3.40412 33.9179 18.2043 -4.39574 -25.3607 0.0 0.0 -0.0 0.0 -0.0 21.0936 31.9885 1.80553 -34.3672 0.147826 -5.19393 9.72554 -30.5578 1.49919 3.97572 -0.0 -0.0 0.0 0.0 0.0 
523.977189974 715.357 -1236.6014308 -170.869141792 -33.1256735968 -173.064256709 0.756281 0.437458 1.29902 0.75715 0.353919 1.32422 0.765748 0.0860345 1.36799 0.763263 0.300984 1.33724 -2.99351 -19.5255 2.74354 -2.22823 -37.6918 0.197187 -0.0 0.0 -0.0 0.8711 18.8177 3.50605 -11.4706 -51.3093 71.7581 0.207423 -5.86676 0.0106288 13.1123 0.274376 -1.64886 -0.765957 21.1483 3.97836 -0.0 0.0 -0.0 9.26836 9.86947 -18.2433 -15.3928 27.3353 -54.6242 1.29026 32.5834 -0.377109 35.0001 0.115057 4.4008 -0.282298 -2.49883 0.821604 0.0 0.0 0.0 19.2814 -4.98733 -1.43081 -22.3889 0.259618 3.40412 33.9179 18.2043 -4.39574 -25.3607 0.0 0.0 -0.0 0.0 -0.0 21.0936 31.9885 1.80553 -34.3672 0.147826 -5.19393 9.72554 -30.5578 1.49919 3.97572 -0.0 -0.0 0.0 0.0 0.0 
523.582227593 715.357 -1238.18665772 -170.79680572 -33.8038051976 -172.933078481 0.756281 0.437458 1.29902 0.75715 0.353919 1.32422 0.765748 0.0860345 1.36799 0.763263 0.300984 1.33724 -2.99351 -19.5255 2.74354 -2.22823 -37.6918 0.197187 -0.0 0.0 -0.0 0.8711 18.8177 3.50605 -11.4706 -51.3093 71.7581 0.207423 -5.86676 0.0106288 13.1123 0.274376 -1.64886 -0.765957 21.1483 3.97836 -0.0 0.0 -0.0 9.26836 9.86947 -18.2433 -15.3928 27.3353 -54.6242 1.29026 32.5834 -0.377109 35.0001 0.115057 4.4008 -0.282298 -2.49883 0.821604 0.0 0.0 0.0 19.2814 -4.98733 -1.43081 -22.3889 0.259618 3.40412 33.9179 18.2043 -4.39574 -25.3607 0.0 0.0 -0.0 0.0 -0.0 21.0936 31.9885 1.80553 -34.3672 0.147826 -5.19393 9.72554 -30.5578 1.49919 3.97572 -0.0 -0.0 0.0 0.0 0.0 
523.878061168 715.357 -1237.00700206 -170.85088577 -33.2989908663 -173.030927229 0.756281 0.437458 1.29902 0.75715 0.353919 1.32422 0.765748 0.0860345 1.36799 0.763263 0.300984 1.33724 -2.99351 -19.5255 2.74354 -2.22823 -37.6918 0.197187 -0.0 0.0 -0.0 0.8711 18.8177 3.50605 -11.4706 -51.3093 71.7581 0.207423 -5.86676 0.0106288 13.1123 0.274376 -1.64886 -0.765957 21.1483 3.97836 -0.0 0.0 -0.0 9.26836 9.86947 -18.2433 -15.3928 27.3353 -54.6242 1.29026 32.5834 -0.377109 35.0001 0.115057 4.4008 -0.282298 -2.49883 0.821604 0.0 0.0 0.0 19.2814 -4.98733 -1.43081 -22.3889 0.259618 3.40412 33.9179 18.2043 -4.39574 -25.3607 0.0 0.0 -0.0 0.0 -0.0 21.0936 31.9885 1.80553 -34.3672 0.147826 -5.19393 9.72554 -30.5578 1.49919 3.97572 -0.0 -0.0 0.0 0.0 0.0 
523.989248012 715.357 -1236.55172664 -170.871367439 -33.1044412596 -173.068330583 0.756281 0.437458 1.29902 0.75715 0.353919 1.32422 0.765748 0.0860345 1.36799 0.763263 0.300984 1.33724 -2.99351 -19.5255 2.74354 -2.22823 -37.6918 0.197187 -0.0 0.0 -0.0 0.8711 18.8177 3.50605 -11.4706 -51.3093 71.7581 0.207423 -5.86676 0.0106288 13.1123 0.274376 -1.64886 -0.765957 21.1483 3.97836 -0.0 0.0 -0.0 9.26836 9.86947 -18.2433 -15.3928 27.3353 -54.6242 1.29026 32.5834 -0.377109 35.0001 0.115057 4.4008 -0.282298 -2.49883 0.821604 0.0 0.0 0.0 19.2814 -4.98733 -1.43081 -22.3889 0.259618 3.40412 33.9179 18.2043 -4.39574 -25.3607 0.0 0.0 -0.0 0.0 -0.0 21.0936 31.9885 1.80553 -34.3672 0.147826 -5.19393 9.72554 -30.5578 1.49919 3.97572 -0.0 -0.0 0.0 0.0 0.0 
531.618619742 713.743 -1234.48022745 -171.015547302 -32.4622151045 -174.087241394 0.925018 0.385244 1.50931 0.92624 0.288434 1.53076 0.93438 -0.0143063 1.55762 0.931069 0.231841 1.54034 -3.31743 -19.7873 2.81151 -2.58373 -38.2791 0.117336 -0.0 0.0 -0.0 1.27725 17.2401 3.99169 -13.6247 -50.9814 69.1298 0.199844 -5.65381 0.00986801 13.8512 0.278528 -1.74316 -0.62882 20.7466 4.62133 -0.0 0.0 -0.0 9.32411 9.21963 -18.3747 -15.3322 27.0605 -55.3003 1.32778 33.3331 -0.397525 32.9501 0.0342109 4.15157 0.2552 -1.21118 -2.20862 0.0 0.0 0.0 18.5914 0.764653 -1.15128 -20.9491 0.28315 3.18445 32.475 9.98948 -4.15753 -26.2177 0.0 0.0 -0.0 0.0 -0.0 21.4748 33.889 2.14731 -36.1945 0.242578 -5.45818 9.47371 -30.7209 1.4632 4.66255 -0.0 -0.0 0.0 0.0 0.0 
546.213045391 713.485 -1232.70214896 -170.837331067 -30.8468323451 -173.936889211 1.22457 0.44839 1.55909 1.22586 0.348286 1.58445 1.23586 0.0425384 1.62171 1.23232 0.298091 1.59465 -4.21345 -20.1045 2.50684 -3.64278 -38.7879 -0.590926 -0.0 0.0 -0.0 1.14604 17.4491 3.80643 -14.4262 -50.9774 66.728 0.223719 -6.32409 0.0123592 14.3368 0.280594 -1.80514 -0.587217 21.0217 4.97934 -0.0 0.0 -0.0 9.24584 8.77933 -18.2118 -15.7423 26.7194 -56.4836 1.29903 32.7599 -0.381847 31.6009 -0.0141057 3.98604 0.548632 -0.935466 -4.05166 0.0 0.0 0.0 16.5803 0.782731 -0.192349 -21.5177 0.274517 3.27127 33.4934 2.39943 -4.25705 -26.0314 0.0 0.0 -0.0 0.0 -0.0 22.3346 32.7681 1.95126 -32.273 0.0496848 -4.88763 7.63882 -28.6059 1.1688 5.34207 -0.0 -0.0 0.0 0.0 0.0 
